<svg xml:space="preserve" style="enable-background:new 0 0 1500 800;" viewBox="0 0 1500 800" y="0px" x="0px" xmlns:xlink="http://www.w3.org/1999/xlink" xmlns="http://www.w3.org/2000/svg" id="Design" version="1.1">
<style type="text/css">
	.st0{fill:#5A535C;}
</style>
<g>
	<g>
		<path d="M358,700.2c-14.2-3.6-17.8-5.4-17.8-10.8v-0.2c0-4,3.6-7.2,10.6-7.2s14.1,3.1,21.4,8.1l9.4-13.6
			C373.3,669.8,363,666,351,666c-16.8,0-28.8,9.9-28.8,24.8v0.2c0,16.4,10.7,20.9,27.3,25.2c13.8,3.5,16.6,5.9,16.6,10.5v0.2
			c0,4.8-4.5,7.8-11.9,7.8c-9.4,0-17.2-3.9-24.6-10l-10.7,12.8c9.9,8.8,22.5,13.2,34.9,13.2c17.8,0,30.2-9.2,30.2-25.5v-0.2
			C384.1,710.6,374.7,704.6,358,700.2z" class="st0"></path>
		<rect height="82.3" width="18.1" class="st0" y="667.2" x="411.5"></rect>
		<polygon points="516.4,717.9 477.8,667.2 461.1,667.2 461.1,749.5 478.9,749.5 478.9,697.1 518.8,749.5 534.2,749.5 
			534.2,667.2 516.4,667.2" class="st0"></polygon>
		<path d="M604.1,734.2c-14.1,0-23.9-11.8-23.9-25.9v-0.2c0-14.1,10-25.7,23.9-25.7c8.2,0,14.7,3.5,21.1,9.3l11.5-13.3
			c-7.7-7.5-17-12.7-32.5-12.7c-25.3,0-42.9,19.2-42.9,42.6v0.2c0,23.6,18,42.4,42.2,42.4c15.9,0,25.3-5.7,33.8-14.7l-11.5-11.6
			C619.2,730.4,613.5,734.2,604.1,734.2z" class="st0"></path>
		<polygon points="680.6,716.1 719.4,716.1 719.4,700 680.6,700 680.6,683.3 724.7,683.3 724.7,667.2 662.6,667.2 
			662.6,749.5 725.3,749.5 725.3,733.4 680.6,733.4" class="st0"></polygon>
		<polygon points="791.3,673.6 795.1,688.5 809.4,684.9 809.4,749.5 827.3,749.5 827.3,666.6 815,666.6" class="st0"></polygon>
		<path d="M887,665.8c-18.6,0-31.4,12.2-31.4,28.8v0.2c0,16.7,11.5,26.6,29.4,26.6c7.2,0,12.7-2.2,16.7-5.6
			c-1.2,11.1-6.6,18.7-16.7,18.7c-6.9,0-12-2.2-18-7l-9.5,13.8c6.9,5.8,15.1,9.8,27,9.8c23.4,0,36-18.2,36-44.9v-0.2
			c0-16.2-3.9-25.2-9.8-31.1C904.5,668.5,898.1,665.8,887,665.8z M902,694.1c0,7-5.2,12.2-14.1,12.2c-8.9,0-14.4-5.1-14.4-12.3v-0.2
			c0-7.3,5.1-12.5,14-12.5c9.1,0,14.5,5.3,14.5,12.6V694.1z" class="st0"></path>
		<polygon points="944.6,682.8 983.3,682.8 946.5,749.5 966.9,749.5 1003.8,680.8 1003.8,667.2 944.6,667.2" class="st0"></polygon>
		<path d="M1074.6,706.8c6.4-3.9,10.5-9.2,10.5-18v-0.2c0-12.7-11.5-22.6-28.9-22.6s-28.9,10-28.9,22.6v0.2
			c0,8.8,4.1,14.1,10.5,18c-8.7,4-13.3,9.9-13.3,19.9v0.2c0,14.3,13.5,23.8,31.8,23.8s31.8-8.9,31.8-24.2v-0.2
			C1087.9,716.4,1082.9,711.2,1074.6,706.8z M1044.3,690.4c0-5.1,4.3-9.5,11.8-9.5c7.4,0,11.8,4.6,11.8,9.7v0.2
			c0,5.8-4.6,10-11.8,10c-7.2,0-11.8-4.3-11.8-10.1V690.4z M1070.3,725.5c0,5.8-5.3,10.2-14.2,10.2c-8.9,0-14.2-4.6-14.2-10.2v-0.2
			c0-6.4,6-10.1,14.2-10.1c8.2,0,14.2,3.8,14.2,10.1V725.5z" class="st0"></path>
		<path d="M1382.7,202.3c-1.6-7.9-3.6-15.8-5.9-23.5c-3.7-12.3-8.3-24.3-13.9-35.8c-6.1-12.2-13.4-23.9-22.1-34.4
			c-9.6-11.5-20.8-21.7-33.2-30.2c-9.4-6.5-19.5-11.9-30-16.2c-12.8-5.1-26.2-8.4-39.8-10.6c-8.7-1.4-17.3-2.3-26.1-2.5
			c-10.9-0.3-21.8,0.4-32.4,2.6c-9.5,2-18.7,5.2-27.6,9.2c-7.9,3.6-15.4,7.8-22.4,12.9c-10.9,7.9-20.3,18-27.5,29.4
			c-7.5,11.8-12.6,25.1-16.3,38.6c-2.9,10.5-5,21.2-6.3,32c-1.2,10.2-1.5,20.4-1.1,30.7c0.3,8,1.2,15.9,2.7,23.8
			c6.7,34.1,27.1,66.9,55.1,87.8c8.4,6.3,17.5,11.5,27.1,15.4c12.8,5.2,26.6,8,39.8,12.2c11,3.5,21.7,8.1,31.8,13.7
			c10.4,5.7,20.2,12.4,28.8,20.7c7.8,7.5,14.7,16.4,17.2,27c2.3,9.8,0.7,21.1-4.9,29.3c-4.8,7-12.6,11.8-20.7,14.8
			c-10.1,3.8-20.8,5-31.5,4.5c-15.4-0.6-30.7-4.6-44.3-11.9c-10.5-5.6-19.9-13.1-28-21.8c-8.9-9.5-16.1-20.4-22.3-31.9
			c-5.5-10.3-10.1-21-13.6-32c-23.6,27.2-47.2,54.4-70.9,81.6c9.9,10.4,20.1,20.6,30.5,30.6c14.2,13.7,28.7,27.1,44,39.5
			c10.4,8.5,21.2,16.5,32.6,23.8c11.1,7.1,22.7,13.5,35,17.9c12.4,4.4,25.6,6.8,38.7,7.1c13.5,0.3,27-1.6,40.1-5.3
			c11.2-3.1,22-7.5,32.1-13.1c10.6-5.8,20.4-13,29.6-20.9c11.3-9.6,21.7-20.2,30-32.5c13.8-20.6,21.5-45.8,22.6-70.8
			c0.8-19.8-2.4-39.4-8.7-58.1c-6.5-19.3-16.4-37.6-30-52.6c-8.8-9.7-19.2-17.9-30.6-24.4c-16-9.2-33.8-14.9-51.5-20.5
			c-11.9-3.7-23.8-7.4-35.2-12.7c-12.6-5.8-24.6-13.7-33.2-24.4c-4.3-5.3-7.7-11.3-10.3-17.7c-3.3-8-5.2-16.5-5.2-25.3
			c0-9,2.1-18.3,7.3-25.3c9.3-12.7,28.8-17.8,45.2-14.7c8.4,1.5,16.1,5.2,21.8,11c4.8,4.8,8.2,11.1,10.6,17.6c2,5.4,3.3,11,4.3,16.6
			c1.2,7.1,1.8,14.3,1.8,21.5c0,6.2-0.3,12.3-1.1,18.4C1304.3,216.3,1343.5,209.3,1382.7,202.3z" class="st0"></path>
		<polygon points="564.5,89.1 473.5,105.8 459.6,540.4 587.5,545.9" class="st0"></polygon>
		<path d="M354,485.4c7.7-14.5,12-30.6,14-46.9c1.6-12.8,1.8-25.8,0.8-38.6c-0.9-11.4-2.8-22.8-6.2-33.8
			c-4.4-14.2-11.3-27.8-20.5-39.4c-7.8-9.9-17.3-18.3-27.6-25.5c-9.5-6.6-19.8-12-30.5-16.2c4.1-2.8,7.9-5.9,11.5-9.4
			c6.9-6.6,12.9-14.2,17.4-22.7c6-11.3,9.1-24.1,10.3-36.9c1.6-15.9,0.3-31.8-3.4-47.4c-4.4-18.7-12.4-37-24.9-51.3
			c-15.2-17.4-37.2-28.9-59.7-35.6c-16.4-4.9-33.1-7.3-49.9-8.1c-23.3-1.1-46.8,0.9-69.8,5.1c-16.6,3-33,7.1-49.4,11.1
			c-13,3.2-26,6.5-38.9,10C35.4,246.5,43.6,393.3,51.8,540c17.6,4.6,35.5,8.2,53.5,11c18.5,2.9,37.1,4.8,55.8,5.8
			c18.5,0.9,37,0.9,55.5-0.5c19.6-1.5,39-4.5,57.9-10.2c16.5-5,32.5-12.1,46.3-22.3C334.4,513.6,346,500.4,354,485.4z M131.8,232.2
			c-4.6-6.1-8.5-12.7-11.4-19.8c-2.8-6.9-4.6-14.4-5.2-21.9c-0.4-5.2-0.1-10.5,1.1-15.5c1-3.9,2.5-7.7,4.5-11.3
			c1.9-3.4,4.1-6.6,6.6-9.6c2.6-3.1,5.6-6,9.1-8.1c3.2-1.9,6.7-3.1,10.4-3.4c4.1-0.4,8.3,0.2,12.1,1.8c3.4,1.5,6.3,3.7,8.9,6.3
			c2.7,2.7,4.9,5.8,7,9c2.3,3.7,4.4,7.5,6,11.5c2-2.7,4.2-5.2,6.6-7.6c2.7-2.8,5.6-5.5,8.8-7.8c3.3-2.4,6.9-4.4,10.8-5.8
			c4.7-1.6,9.7-2.2,14.6-1.6c4,0.5,7.9,1.7,11.5,3.6c3.1,1.7,6,4,8.4,6.6c2.6,2.9,4.6,6.2,5.9,9.8c1.6,4,2.3,8.3,2.7,12.6
			c0.4,3.8,0.6,7.6,0.4,11.4c-0.2,4.6-0.9,9.2-2.1,13.6c-1.6,5.8-4.1,11.3-7.2,16.4c-2.9,4.7-6.4,9-10.2,13c-4,4.2-8.5,8-13.1,11.6
			c-4.7,3.5-9.6,6.8-14.7,9.7c-4.9,2.9-10,5.6-15.1,8.1c-4.2,2-8.4,3.9-12.6,5.7c-4.7-3-9.3-6.2-13.8-9.5c-5.4-4-10.5-8.2-15.4-12.8
			C141.1,243.3,136.2,238,131.8,232.2z M276.4,413.1c-2.1,8.7-6,17.1-11.7,23.8c-7.5,8.7-18,14.6-29,18.6
			c-10.7,3.9-21.7,5.9-32.9,7.2c-11.9,1.4-23.9,1.8-35.9,1.5c-6.4-0.2-12.8-0.6-19.2-1.3c0.9-42.9,1.9-85.7,2.8-128.6
			c7.4-0.5,14.8-0.7,22.2-0.7c11.6,0,23.2,0.6,34.6,2.1c10.1,1.3,20.1,3.4,29.7,7c9.9,3.6,19.5,8.8,26.6,16.4
			c6.1,6.5,10.4,14.9,12.6,23.6C278.9,392.6,278.8,403.1,276.4,413.1z" class="st0"></path>
		<path d="M1451.1,117.6c-0.3-1-0.7-1.9-1-2.8c-0.4-1.1-0.8-2.2-1.2-3.3c-0.4-1-0.8-2-1.3-3c-0.6-1.2-1.4-2.4-2.3-3.3
			c-0.8-0.8-1.7-1.5-2.6-2c-0.7-0.4-1.5-0.8-2.3-1.1c0.7-0.2,1.4-0.4,2.1-0.6c0.9-0.3,1.7-0.7,2.5-1.2c0.9-0.5,1.7-1.1,2.4-1.9
			c0.8-0.8,1.5-1.8,1.9-2.9c0.4-1,0.6-2.2,0.8-3.3c0.1-1.4,0.1-2.7-0.2-4.1c-0.2-1-0.5-2-0.9-2.9c-0.5-1-1.2-2-2-2.8
			c-0.9-0.9-2-1.5-3.1-2.1c-1.1-0.5-2.2-0.9-3.6-1.2c-1.4-0.3-2.9-0.5-4.4-0.6c-1.2-0.1-2.2-0.1-3.1-0.1h-3.3h-3.3h-3.6h-0.7
			c-0.5,0-1,0-1.5,0.1c-0.6,0.1-1.2,0.3-1.6,0.7c-0.4,0.3-0.8,0.7-1,1.2c-0.3,0.5-0.4,1-0.5,1.5c-0.1,0.7-0.1,1.4-0.1,2.1v3.5v6.6
			v8.7v8.7c0,2.2,0,4.4,0,6.7c0,0.4,0,0.9,0,1.3c0,0.2,0,0.4,0,0.6c0,0.2,0.1,0.4,0.2,0.6c0.1,0.2,0.2,0.3,0.4,0.4
			c0.2,0.1,0.4,0.2,0.6,0.3c0.3,0.1,0.6,0.1,0.9,0.2c0.4,0.1,0.8,0.1,1.3,0.1c0.4,0,0.8,0,1.2,0c0.4,0,0.8,0,1.2,0
			c0.5,0,0.9,0,1.4-0.1c0.4,0,0.8-0.1,1.3-0.1c0.2,0,0.4-0.1,0.6-0.1c0.2-0.1,0.3-0.1,0.4-0.2c0.1-0.1,0.3-0.2,0.4-0.4
			c0.1-0.1,0.2-0.3,0.2-0.5c0-0.1,0-0.3,0.1-0.4c0-0.4,0-0.7,0-1.1v-2.3V113v-4.3v-3.1c0.6,0,1.3,0,1.9,0c0.6,0,1.3,0,1.9,0
			c0.8,0.1,1.6,0.2,2.4,0.5c0.8,0.3,1.5,0.8,2.1,1.4c0.5,0.5,0.9,1.2,1.3,1.8c0.3,0.7,0.6,1.3,0.9,2c0.3,0.8,0.5,1.6,0.8,2.5
			c0.3,0.9,0.5,1.8,0.8,2.7c0.2,0.6,0.4,1.3,0.6,2c0.2,0.5,0.3,1.2,0.5,1.6c0.2,0.4,0.4,0.7,0.7,0.9c0.4,0.2,0.8,0.4,1.3,0.5
			c0.6,0.1,1.3,0.2,1.9,0.2c0.5,0,0.9,0,1.3,0c0.6,0,1.3,0,1.9,0c0.5,0,1.1,0,1.7-0.1c0.5-0.1,0.9-0.1,1.4-0.2
			c0.2,0,0.5-0.1,0.7-0.2c0.1-0.1,0.3-0.2,0.4-0.3c0.1-0.2,0.2-0.4,0.2-0.6c0-0.3,0-0.5,0-0.7
			C1451.4,118.9,1451.3,118.2,1451.1,117.6z M1438.9,93.6c-0.2,0.8-0.5,1.5-1.1,2.1c-0.6,0.7-1.4,1.2-2.2,1.5
			c-0.7,0.3-1.4,0.4-2.1,0.5c-0.5,0.1-1,0.1-1.6,0.1c-0.4,0-0.8,0-1.2,0h-1.9h-1.8V86.4h2.7h1.7c0.5,0,0.9,0,1.4,0
			c0.7,0,1.5,0.1,2.2,0.3c0.8,0.2,1.6,0.5,2.3,1c0.6,0.5,1.1,1.1,1.4,1.8c0.2,0.5,0.3,1,0.3,1.6C1439.1,92,1439,92.8,1438.9,93.6z" class="st0"></path>
		<path d="M1469.8,85.1c-2-4.8-4.7-9-8.2-12.5c-3.5-3.5-7.7-6.2-12.5-8.2c-4.8-2-10.1-3-15.9-3c-5.6,0-10.8,1-15.7,3.1
			c-4.8,2-9.1,4.8-12.7,8.4c-3.6,3.5-6.4,7.7-8.5,12.6c-2.1,4.8-3.1,10-3.1,15.5c0,5.8,1,11,2.9,15.9c2,4.8,4.7,9,8.2,12.5
			c3.5,3.5,7.7,6.2,12.5,8.2c4.8,2,10.2,3,15.9,3c5.6,0,10.8-1,15.6-3.1c4.9-2.1,9.1-4.9,12.7-8.4c3.6-3.5,6.4-7.7,8.5-12.6
			c2.1-4.8,3.1-10,3.1-15.6C1472.8,95.2,1471.8,89.9,1469.8,85.1z M1461.4,113.5c-1.5,3.7-3.5,7-6.2,9.8c-2.7,2.8-5.9,5-9.7,6.7
			c-3.8,1.7-8,2.5-12.7,2.5c-4.3,0-8.4-0.8-12.1-2.3c-3.7-1.5-6.9-3.7-9.7-6.5c-2.7-2.8-4.8-6.2-6.3-10.1c-1.5-3.9-2.3-8.3-2.3-13
			c0-4.3,0.7-8.3,2.2-12c1.5-3.8,3.5-7.1,6.3-9.9c2.7-2.8,5.9-5.1,9.7-6.7c3.7-1.6,8-2.4,12.6-2.4c4.3,0,8.4,0.7,12.1,2.2
			c3.7,1.5,6.9,3.6,9.7,6.4c2.7,2.8,4.8,6.2,6.3,10.1c1.5,3.9,2.3,8.3,2.3,13.1C1463.6,105.8,1462.9,109.8,1461.4,113.5z" class="st0"></path>
		<path d="M1000.2,338.8c-8.5-13.7-20.1-25.6-33.2-35.2c-10.6-7.8-22.2-14.1-34.4-18.7c8.3-5.7,15.7-12.8,21.6-21
			c5.8-8,10.2-17.1,12.9-26.6c4-14.1,4.4-29.1,3.1-43.8c-1.1-13.3-3.5-26.4-7.9-38.9c-4.8-13.4-11.9-26.2-21.4-36.9
			c-11-12.4-25.1-21.9-40.3-28.7c-13.2-5.9-27.3-9.7-41.5-12.1c-19.9-3.5-40.3-4.4-60.5-3.9c-19.8,0.5-39.5,2.4-59,5.5
			c-14.4,2.3-28.6,5.3-42.7,9c2.6,150.8,5.3,301.7,7.9,452.5c13.5,3.5,27.1,6.4,40.8,8.8c16.4,2.9,32.9,5.2,49.5,6.6
			c27.7,2.5,55.7,2.8,83.4,0c17.3-1.7,34.5-4.8,51.2-10.1c19.7-6.3,38.7-15.8,53.7-29.9c11.4-10.7,20.5-24,26.5-38.5
			c5.6-13.6,8.5-28.1,9.7-42.7c1.5-17.3,0.7-34.8-2.8-51.8C1013.9,367.1,1008.4,352.1,1000.2,338.8z M797.2,172.3
			c7.2-1.7,14.5-3,21.9-3.8c8.6-1,17.3-1.4,25.9-0.9c6.8,0.4,13.6,1.2,20.1,3.1c5.3,1.5,10.4,3.6,14.8,6.8
			c4.8,3.5,8.8,8.2,11.4,13.5c2.1,4.5,3.2,9.4,3.7,14.4c0.6,6.3,0.3,12.7-1.4,18.8c-1.8,6.5-5.1,12.6-9.7,17.4
			c-5.5,5.9-12.8,10-20.4,12.8c-9.2,3.5-18.8,5.3-28.4,6.3c-8.7,0.9-17.5,1.3-26.2,1.1c-4.5-0.1-9-0.3-13.6-0.7
			C795.9,231.6,796.6,202,797.2,172.3z M927.3,413.1c-1.8,8.6-5.6,16.9-11.1,23.6c-5.3,6.4-12.3,11.3-19.8,15
			c-7.4,3.7-15.3,6.2-23.2,8c-9.4,2.1-19,3.3-28.7,4c-9,0.6-17.9,0.8-26.9,0.5c-6-0.2-12.1-0.6-18-1.3c0.2-42.9,0.4-85.7,0.5-128.6
			c4.8-0.3,9.6-0.5,14.4-0.6c8.7-0.2,17.4-0.1,26.1,0.5c8.8,0.5,17.6,1.5,26.3,3.2c9.5,1.8,18.9,4.4,27.7,8.6
			c6.3,2.9,12.2,6.7,17.3,11.4c4.6,4.3,8.5,9.5,11.2,15.1c3.1,6.5,4.7,13.8,5.4,21C928.9,399.9,928.7,406.6,927.3,413.1z" class="st0"></path>
	</g>
</g>
</svg>
