<svg width="40" height="40" viewBox="0 0 40 40" fill="none" xmlns="http://www.w3.org/2000/svg">
<path d="M18.8083 38.6325C24.4558 38.6325 27.7383 36.3475 29.4983 34.4287C30.9653 32.8293 31.9709 30.862 32.4083 28.7362C32.6129 28.0497 32.6954 27.3326 32.6521 26.6175C32.6621 26.2217 32.6525 25.8254 32.6233 25.4287C32.2283 20.86 32.0658 18.9675 32.5846 17.5112L34.7996 10.9812C35.2966 9.62735 35.2595 8.13502 34.6958 6.80749C34.4539 6.30692 34.112 5.86116 33.6913 5.49765C33.2706 5.13413 32.78 4.86055 32.2496 4.69374C31.6962 4.4816 31.106 4.38244 30.5137 4.40212C29.9214 4.4218 29.3391 4.55991 28.8011 4.80831C28.263 5.05671 27.7802 5.41036 27.381 5.8484C26.9819 6.28644 26.6745 6.79999 26.4771 7.35874L25.6458 9.82124C25.559 8.34197 25.4473 6.86427 25.3108 5.38874C25.2616 4.8081 25.0977 4.243 24.8285 3.72614C24.5594 3.20928 24.1904 2.75094 23.743 2.37765C23.2955 2.00435 22.7785 1.72353 22.2217 1.55142C21.665 1.37931 21.0797 1.31935 20.4996 1.37499C19.9121 1.40946 19.338 1.56414 18.8127 1.82946C18.2874 2.09479 17.8222 2.46511 17.4458 2.91749C16.7475 3.71727 16.377 4.75123 16.4083 5.81249L16.6946 10.7175C16.4188 10.6675 16.1404 10.6425 15.8596 10.6425C15.3992 10.6172 14.9377 10.667 14.4933 10.79C14.0682 10.8895 13.6609 11.0539 13.2858 11.2775C12.8842 11.52 12.535 11.8275 12.2383 12.2C11.7825 12.0399 11.3027 11.9588 10.8196 11.96C10.0591 11.9371 9.30516 12.1074 8.62834 12.455C7.97666 12.7784 7.41983 13.265 7.01209 13.8675C6.43393 14.6965 6.15169 15.696 6.21084 16.705V19.52C6.21084 19.7 6.22042 19.8758 6.23959 20.0475C6.14763 22.6157 6.29956 25.1868 6.69334 27.7262C7.71209 34.4525 12.3546 38.6325 18.8083 38.6325ZM9.72834 14.7012C10.0246 14.5512 10.3896 14.4637 10.8196 14.4637C11.0663 14.4654 11.2838 14.5062 11.4721 14.5862C11.5246 14.6087 11.5758 14.6337 11.6258 14.6612C11.6258 15.085 11.6033 15.7962 11.5796 16.6012L11.5721 16.8325C11.5426 17.6893 11.5247 18.5465 11.5183 19.4037C11.5183 20.0037 11.6196 20.5975 11.7808 21.1412C11.5433 21.255 11.2283 21.3287 10.8196 21.3287C10.1371 21.3287 9.60334 21.1212 9.25959 20.8262C8.97552 20.5824 8.79018 20.2433 8.73834 19.8725C8.7214 19.7566 8.71263 19.6396 8.71209 19.5225V16.7125L8.71084 16.7C8.71209 16.0112 8.88584 15.5375 9.12084 15.215C9.28689 15.0048 9.49348 14.8301 9.72834 14.7012ZM8.76584 23.425C9.40334 23.6962 10.1071 23.8287 10.8196 23.8287C11.6983 23.8287 12.5296 23.6262 13.2258 23.1987C13.9783 23.7131 14.8693 23.9869 15.7808 23.9837C16.7758 23.9837 17.6808 23.6775 18.4183 23.1425C18.4746 23.77 18.6558 24.6087 19.1221 25.3787C19.2263 25.5512 19.3446 25.7179 19.4771 25.8787C19.085 26.1198 18.7065 26.3822 18.3433 26.665C17.2908 27.4837 16.2833 28.5325 15.1146 30.0025C14.9082 30.2621 14.8134 30.593 14.851 30.9225C14.8887 31.252 15.0556 31.553 15.3152 31.7594C15.5748 31.9657 15.9057 32.0605 16.2352 32.0229C16.5647 31.9853 16.8657 31.8183 17.0721 31.5587C18.1696 30.1787 19.0371 29.2925 19.8783 28.6375C20.5871 28.0875 21.3096 27.6725 22.1933 27.265C22.3433 27.2783 22.4975 27.285 22.6558 27.285C23.4208 27.285 23.8733 27.6187 24.3058 28.1825C24.5271 28.4712 24.7158 28.7887 24.9346 29.1537L24.9783 29.2287C25.1883 29.5812 25.4658 30.0462 25.8096 30.4087C26.5558 31.1987 27.4383 31.6875 28.3846 31.785L28.4196 31.7887C28.1846 32.1211 27.9295 32.4387 27.6558 32.74C26.5029 33.8963 25.1189 34.7962 23.5943 35.3808C22.0697 35.9654 20.4388 36.2216 18.8083 36.1325C13.6033 36.1325 9.99834 32.8525 9.16584 27.3525C8.9679 26.0503 8.83441 24.7404 8.76584 23.425ZM20.3908 19.0687V15.8625C20.3908 14.475 20.0121 13.2625 19.2958 12.34L18.9008 5.61249C18.9342 5.20888 19.0973 4.82692 19.3658 4.52374C19.5293 4.32703 19.732 4.16661 19.9611 4.05275C20.1901 3.93888 20.4403 3.87408 20.6958 3.86249C20.9526 3.83317 21.2126 3.85618 21.4601 3.93012C21.7077 4.00406 21.9378 4.12741 22.1364 4.29271C22.335 4.45801 22.498 4.66184 22.6156 4.8919C22.7333 5.12196 22.8031 5.37347 22.8208 5.63124C23.0583 8.02374 23.3121 12.7012 23.4246 14.7687L23.4283 14.8362L23.4396 15.01C23.4452 15.3362 23.5545 15.6521 23.7516 15.9121C23.9486 16.1721 24.2233 16.3627 24.5358 16.4562C24.8607 16.5442 25.2057 16.5213 25.5161 16.3911C25.8265 16.2609 26.0846 16.0309 26.2496 15.7375C26.3004 15.6558 26.3421 15.5692 26.3746 15.4775L28.8346 8.19249C28.9228 7.93862 29.063 7.70593 29.2463 7.50931C29.4295 7.31269 29.6517 7.15645 29.8988 7.05058C30.1458 6.9447 30.4122 6.89152 30.681 6.89444C30.9497 6.89735 31.2149 6.95629 31.4596 7.06749C31.6731 7.1263 31.8717 7.22982 32.0421 7.37119C32.2126 7.51256 32.3511 7.68855 32.4483 7.88749C32.7157 8.61753 32.7157 9.41871 32.4483 10.1487L30.2283 16.6937C29.8321 17.8025 29.7196 18.945 29.7758 20.6462C29.55 20.4501 29.3143 20.2657 29.0696 20.0937C27.2758 18.8412 25.0158 18.3175 22.6033 18.4187C21.7196 18.4562 20.9846 18.7 20.3908 19.0687ZM14.3408 20.8825C14.137 20.4152 14.0274 19.9122 14.0183 19.4025C14.0183 18.7325 14.0433 17.805 14.0708 16.9062L14.0783 16.6612C14.1033 15.8662 14.1258 15.1087 14.1258 14.6475C14.1258 14.285 14.1796 14.01 14.2346 13.8237L14.2408 13.8C14.4284 13.5566 14.6767 13.3669 14.9608 13.25C15.1883 13.1808 15.4617 13.1454 15.7808 13.1437C16.3758 13.1437 16.8708 13.365 17.2283 13.7612C17.5908 14.1625 17.8908 14.8362 17.8908 15.8612V19.0487C17.8908 20.6237 16.8733 21.4825 15.7808 21.4825C15.5127 21.4855 15.2467 21.4338 14.9991 21.3307C14.7515 21.2275 14.5275 21.075 14.3408 20.8825ZM30.1521 26.6775C30.1321 27.1575 30.0767 27.6333 29.9858 28.105C29.8308 28.545 29.5946 28.8712 29.3546 29.0637C29.1133 29.2562 28.8733 29.3212 28.6433 29.2975C28.4108 29.2725 28.0533 29.1412 27.6271 28.6912C27.5046 28.5612 27.3621 28.3412 27.1221 27.9412L27.0683 27.8512C26.8316 27.4397 26.5716 27.042 26.2896 26.66C25.5646 25.7137 24.4521 24.785 22.6558 24.785C21.8483 24.785 21.4846 24.4537 21.2608 24.0825C20.9858 23.63 20.8983 23.045 20.8983 22.695C20.8983 22.4375 20.9983 21.9737 21.2796 21.5937C21.5221 21.2637 21.9296 20.9487 22.7083 20.915C24.7108 20.8312 26.3946 21.2737 27.6371 22.1412C28.8608 22.9962 29.7571 24.3312 30.0971 26.2512C30.1221 26.3971 30.1404 26.54 30.1521 26.6775Z" fill="#3A3F4C"/>
</svg>
