<svg width="40" height="40" viewBox="0 0 40 40" fill="none" xmlns="http://www.w3.org/2000/svg">
<g clip-path="url(#clip0_17_1308)">
<path d="M21.6667 15C21.6667 15 23.3333 11.6666 23.3333 8.33329C23.3333 4.99996 20 1.66663 20 1.66663C20 1.66663 16.6667 4.99996 16.6667 8.33329C16.6667 11.6666 18.3333 15 18.3333 15M20 25C21.3261 25 22.5979 24.4732 23.5355 23.5355C24.4732 22.5978 25 21.326 25 20C25 18.6739 24.4732 17.4021 23.5355 16.4644C22.5979 15.5267 21.3261 15 20 15C18.6739 15 17.4021 15.5267 16.4645 16.4644C15.5268 17.4021 15 18.6739 15 20C15 21.326 15.5268 22.5978 16.4645 23.5355C17.4021 24.4732 18.6739 25 20 25Z" stroke="#3A3F4C" stroke-width="1.5" stroke-miterlimit="1.5" stroke-linecap="round" stroke-linejoin="round"/>
<path d="M14.9998 18.3333C14.9998 18.3333 11.6665 16.6666 8.33317 16.6666C4.99984 16.6666 1.6665 20 1.6665 20C1.6665 20 4.99984 23.3333 8.33317 23.3333C11.6665 23.3333 14.9998 21.6666 14.9998 21.6666M21.6665 25C21.6665 25 23.3332 28.3333 23.3332 31.6666C23.3332 35 19.9998 38.3333 19.9998 38.3333C19.9998 38.3333 16.6665 35 16.6665 31.6666C16.6665 28.3333 18.3332 25 18.3332 25M24.9998 18.3333C24.9998 18.3333 28.3332 16.6666 31.6665 16.6666C34.9998 16.6666 38.3332 20 38.3332 20C38.3332 20 34.9998 23.3333 31.6665 23.3333C28.3332 23.3333 24.9998 21.6666 24.9998 21.6666M17.6432 15.2866C17.6432 15.2866 16.4648 11.75 14.1065 9.39329C11.7498 7.03662 7.0365 7.03662 7.0365 7.03662C7.0365 7.03662 7.0365 11.75 9.39317 14.1083C11.7498 16.465 15.2865 17.6433 15.2865 17.6433M15.2865 22.3566C15.2865 22.3566 11.7498 23.535 9.39317 25.8933C7.0365 28.25 7.0365 32.9633 7.0365 32.9633C7.0365 32.9633 11.7498 32.9633 14.1065 30.6066C16.4632 28.25 17.6432 24.7133 17.6432 24.7133M24.7148 22.3566C24.7148 22.3566 28.2482 23.535 30.6065 25.8933C32.9632 28.25 32.9632 32.9633 32.9632 32.9633C32.9632 32.9633 28.2498 32.9633 25.8932 30.6066C23.5365 28.25 22.3565 24.7133 22.3565 24.7133M22.3565 15.2866C22.3565 15.2866 23.5348 11.75 25.8932 9.39329C28.2498 7.03662 32.9632 7.03662 32.9632 7.03662C32.9632 7.03662 32.9632 11.75 30.6065 14.1083C28.2498 16.465 24.7132 17.6433 24.7132 17.6433" stroke="#3A3F4C" stroke-width="1.5" stroke-miterlimit="1.5" stroke-linecap="round" stroke-linejoin="round"/>
</g>
<defs>
<clipPath id="clip0_17_1308">
<rect width="40" height="40" fill="white"/>
</clipPath>
</defs>
</svg>
